<svg fill="none" height="92" viewBox="0 0 92 92" width="92" xmlns="http://www.w3.org/2000/svg"><path clip-rule="evenodd" d="m36.0241 61.7074c-.6546-.0285-2.3006-.3167-3.9684-.7551-1.6549-.4274-2.7855-.9981-2.7855-.9981-.622-.3115-.849-.8029-.9362-1.3106.0266.0099-.2107-1.5946-.2107-4.6985 0-2.3561.1279-3.6186.1863-4.0172.0627-.4199.2745-.7636.8394-.7377.565.0267 1.333.0132 3.1393.3285 2.154.3848 3.2094.7098 3.7217.8795.4633.1598.9511.5088 1.0454 1.1627 0 0 .2495 1.7183.2457 4.3236.0037 2.1086-.1541 4.1978-.2259 4.8732-.067.6256-.3964.9783-1.0511.9497zm9.752-7.246c-.0004-.3726-.1581-.7198-.4617-.9947l-5.5802-5.1642c-.6403-.6336-1.4022-1.0285-2.3291-1.2129 0 0-2.1053-.4903-5.2392-.9861-3.134-.4958-3.9524-.4398-3.9524-.4398-2.7786 0-2.8787 2.7961-2.9074 3.0784-.0686.6749-.2319 2.4634-.2319 4.9531 0 2.9383.1325 4.9743.2924 6.2188.243 1.8994 1.7888 2.79 2.5002 3.1274.1804.0852 2.111.8565 4.0686 1.4262 1.3194.3846 3.4335.947 4.4239 1.0947.3255.0493 2.2386.3594 3.1424-.7713l5.9298-7.2559c.2458-.336.3446-.4728.3446-.9872zm12.9602-10.5839c-.8411-.0805-1.6871-.0978-2.531-.0519l-13.3365 1.1783s-.8841.1271-1.3877.7613c-.3896.4906-.4715.8999-.4715.8999.1764.1655.2477.2334.345.3174l5.2664 5.0698c.5889.5457.9306 1.0766.9306 1.8712v2.8557c0 .5077-.0464.9343-.3454 1.3173l-2.8244 3.6213 2.8417 1.0404c1.0784.3354 2.0799.3258 3.2056.1641l12.2329-2.6506s2.206-.5539 2.2063-2.5316v-7.0353c0-.1358-.0834-.2526-.2335-.224l-7.8113 1.4492c-.2915.0559-.4741.2915-.4741.5557v3.4081c0 .2036.2509.3677.4741.3205l2.4476-.5393c.1273-.0332.2256.0551.2306.2188v1.0994c-.0117.2263-.2.3824-.4652.4398l-2.7704.5609c.0023-.0081-1.8593.4474-1.8593-1.43v-4.3468c0-1.8967 1.4572-2.0889 1.4572-2.0889l8.6007-1.5649c.224-.0399.4036-.2274.4036-.4304v-1.7706c-.0081-1.955-2.0079-2.076-2.0079-2.076zm-15.9851-18.4423c3.1988.1284 5.6236 2.9954 5.4573 6.4821-.1846 3.4767-2.9569 6.2498-6.0387 6.13-3.1981-.1285-5.5162-3.0236-5.3506-6.5097.1846-3.4766 2.8503-6.2222 5.932-6.1024zm12.886 8.1553c.1311-2.3772 1.9283-4.256 4.0498-4.1798 2.0169.0855 3.6275 2.1039 3.5195 4.4037-.1301 2.384-1.9553 4.1914-4.0722 4.1277-2.0223-.0987-3.6041-2.0442-3.4971-4.3516zm10.7239.3107c-.0056-4.6922-3.7046-8.4653-8.2575-8.4653-2.6576 0-5.0689 1.3276-6.6293 3.2982-1.1988-5.0087-5.6287-8.6991-10.9324-8.6852-6.3298.0167-11.4188 5.1786-11.3977 11.5436.0212 6.4296 5.1375 11.6536 11.3977 11.6356.3605-.0039 17.611-1.0976 17.5617-1.0985 4.9718-.4051 8.2829-3.6453 8.2575-8.2284z" fill="#ff7705" fill-rule="evenodd"/></svg>